<svg width="18" height="18" viewBox="0 0 18 18" fill="none" xmlns="http://www.w3.org/2000/svg">
<path d="M13.95 3.59961C14.1436 3.59961 14.2801 3.68477 14.3582 3.85352C14.4362 4.02204 14.4187 4.18123 14.3064 4.33105L9.90019 9.69336V13.9502C9.90014 14.0776 9.85716 14.1843 9.77128 14.2705C9.68515 14.3568 9.57809 14.4004 9.45097 14.4004H8.55351C8.42627 14.4004 8.31873 14.3568 8.23124 14.2705C8.14388 14.1843 8.10042 14.0775 8.10038 13.9502V9.69336L3.69413 4.33105C3.58173 4.18117 3.56433 4.02212 3.64237 3.85352C3.7205 3.68477 3.85695 3.59961 4.05058 3.59961H13.95ZM8.9998 8.66211L12.0379 4.9502H5.94413L8.9998 8.66211Z" fill="#2EB87A"/>
</svg>
