<svg width="40" height="40" viewBox="0 0 40 40" fill="none" xmlns="http://www.w3.org/2000/svg">
<path d="M30.4471 36.8385C30.5728 36.7342 30.658 36.5892 30.6879 36.4287C30.9293 34.9937 31.6119 33.6697 32.6408 32.6408C33.6697 31.6119 34.9937 30.9293 36.4287 30.6879C36.5892 30.658 36.7342 30.5728 36.8385 30.4471C36.9429 30.3215 37 30.1633 37 30C37 29.8367 36.9429 29.6785 36.8385 29.5529C36.7342 29.4272 36.5892 29.3421 36.4287 29.3121C34.9937 29.0707 33.6697 28.3881 32.6408 27.3592C31.6119 26.3303 30.9293 25.0063 30.6879 23.5713C30.658 23.4108 30.5728 23.2658 30.4471 23.1615C30.3215 23.0571 30.1633 23 30 23C29.8367 23 29.6785 23.0571 29.5529 23.1615C29.4272 23.2658 29.3421 23.4108 29.3121 23.5713C29.0707 25.0063 28.3881 26.3303 27.3592 27.3592C26.3303 28.3881 25.0063 29.0707 23.5713 29.3121C23.4108 29.3421 23.2658 29.4272 23.1615 29.5529C23.0571 29.6785 23 29.8367 23 30C23 30.1633 23.0571 30.3215 23.1615 30.4471C23.2658 30.5728 23.4108 30.658 23.5713 30.6879C25.0063 30.9293 26.3303 31.6119 27.3592 32.6408C28.3881 33.6697 29.0707 34.9937 29.3121 36.4287C29.3421 36.5892 29.4272 36.7342 29.5529 36.8385C29.6785 36.9429 29.8367 37 30 37C30.1633 37 30.3215 36.9429 30.4471 36.8385Z" fill="#2EB87A"/>
<path d="M16.2984 27.7117C16.5228 27.5254 16.6749 27.2664 16.7285 26.9798C17.1594 24.4174 18.3783 22.053 20.2157 20.2157C22.053 18.3783 24.4174 17.1594 26.9798 16.7285C27.2664 16.6749 27.5254 16.5228 27.7117 16.2984C27.898 16.0741 28 15.7916 28 15.5C28 15.2084 27.898 14.9259 27.7117 14.7016C27.5254 14.4772 27.2664 14.3251 26.9798 14.2715C24.4174 13.8406 22.053 12.6217 20.2157 10.7843C18.3783 8.947 17.1594 6.58265 16.7285 4.02025C16.6749 3.73357 16.5228 3.47465 16.2984 3.28832C16.0741 3.102 15.7916 3 15.5 3C15.2084 3 14.9259 3.102 14.7016 3.28832C14.4772 3.47465 14.3251 3.73357 14.2715 4.02025C13.8406 6.58265 12.6217 8.947 10.7843 10.7843C8.947 12.6217 6.58265 13.8406 4.02025 14.2715C3.73357 14.3251 3.47465 14.4772 3.28832 14.7016C3.102 14.9259 3 15.2084 3 15.5C3 15.7916 3.102 16.0741 3.28832 16.2984C3.47465 16.5228 3.73357 16.6749 4.02025 16.7285C6.58265 17.1594 8.947 18.3783 10.7843 20.2157C12.6217 22.053 13.8406 24.4174 14.2715 26.9798C14.3251 27.2664 14.4772 27.5254 14.7016 27.7117C14.9259 27.898 15.2084 28 15.5 28C15.7916 28 16.0741 27.898 16.2984 27.7117Z" fill="#2EB87A"/>
</svg>
