<svg width="23" height="25" viewBox="0 0 23 25" fill="none" xmlns="http://www.w3.org/2000/svg">
<path d="M11.5001 22.0502C16.7928 22.0502 21.0834 17.5629 21.0834 12.0274C21.0834 6.49195 16.7928 2.00458 11.5001 2.00458C6.20735 2.00458 1.91675 6.49195 1.91675 12.0274C1.91675 17.5629 6.20735 22.0502 11.5001 22.0502Z" stroke="#2EB87A" stroke-width="1.5" stroke-linecap="round" stroke-linejoin="round"/>
<path d="M8.71118 9.02056C8.93649 8.3507 9.3812 7.78585 9.96655 7.42606C10.5519 7.06626 11.2401 6.93474 11.9093 7.05479C12.5785 7.17484 13.1855 7.53871 13.6227 8.08195C14.06 8.62519 14.2993 9.31274 14.2983 10.0228C14.2983 12.0274 11.4233 13.0297 11.4233 13.0297" stroke="#2EB87A" stroke-width="1.5" stroke-linecap="round" stroke-linejoin="round"/>
<path d="M11.5 17.0388H11.51" stroke="#2EB87A" stroke-width="1.5" stroke-linecap="round" stroke-linejoin="round"/>
</svg>
