<svg width="87" height="31" viewBox="0 0 87 31" fill="none" xmlns="http://www.w3.org/2000/svg">
<rect y="2" width="26" height="29" rx="5" fill="#2EB87A"/>
<path d="M2 9H24V25C24 27.2091 22.2091 29 20 29H6C3.79086 29 2 27.2091 2 25V9Z" fill="white"/>
<rect x="4" y="14" width="18" height="2" rx="1" fill="#2EB87A"/>
<rect x="4" y="18" width="18" height="2" rx="1" fill="#2EB87A"/>
<rect x="4" y="22" width="18" height="2" rx="1" fill="#2EB87A"/>
<path d="M19.647 4.2094C19.647 3.70161 19.8108 3.20576 20.1168 2.78735C20.4228 2.36894 20.8566 2.04765 21.3608 1.86592C21.8651 1.68418 22.4161 1.65055 22.9411 1.76947C23.4662 1.88839 23.9405 2.15426 24.3014 2.53196C24.3268 2.55752 24.3576 2.5779 24.3917 2.59183C24.4259 2.60576 24.4627 2.61295 24.4999 2.61295C24.5371 2.61295 24.5739 2.60576 24.6081 2.59183C24.6422 2.5779 24.673 2.55752 24.6984 2.53196C25.0582 2.1518 25.5326 1.8837 26.0585 1.76334C26.5843 1.64297 27.1367 1.67606 27.6421 1.8582C28.1475 2.04033 28.5819 2.36287 28.8875 2.7829C29.1931 3.20292 29.3554 3.7005 29.3528 4.2094C29.3528 5.25438 28.6249 6.03469 27.8969 6.71918L25.2317 9.14362C25.1413 9.24127 25.0298 9.31972 24.9047 9.37374C24.7795 9.42776 24.6436 9.45613 24.5059 9.45695C24.3682 9.45777 24.2318 9.43103 24.106 9.3785C23.9801 9.32597 23.8676 9.24886 23.7758 9.15229L21.1029 6.71918C20.3749 6.03469 19.647 5.25895 19.647 4.2094Z" fill="#2EB87A" stroke="white" stroke-linecap="round" stroke-linejoin="round"/>
<path d="M39.132 14.448C39.644 14.448 40.096 14.552 40.488 14.76C40.888 14.96 41.2 15.272 41.424 15.696C41.656 16.112 41.772 16.648 41.772 17.304V21H39.9V17.592C39.9 17.072 39.792 16.688 39.576 16.44C39.36 16.192 39.056 16.068 38.664 16.068C38.392 16.068 38.148 16.132 37.932 16.26C37.716 16.38 37.548 16.564 37.428 16.812C37.308 17.06 37.248 17.376 37.248 17.76V21H35.376V17.592C35.376 17.072 35.268 16.688 35.052 16.44C34.844 16.192 34.544 16.068 34.152 16.068C33.88 16.068 33.636 16.132 33.42 16.26C33.204 16.38 33.036 16.564 32.916 16.812C32.796 17.06 32.736 17.376 32.736 17.76V21H30.864V14.544H32.652V16.308L32.316 15.792C32.54 15.352 32.856 15.02 33.264 14.796C33.68 14.564 34.152 14.448 34.68 14.448C35.272 14.448 35.788 14.6 36.228 14.904C36.676 15.2 36.972 15.656 37.116 16.272L36.456 16.092C36.672 15.588 37.016 15.188 37.488 14.892C37.968 14.596 38.516 14.448 39.132 14.448ZM44.1488 23.424C43.8128 23.424 43.4808 23.372 43.1528 23.268C42.8248 23.164 42.5568 23.02 42.3487 22.836L43.0328 21.504C43.1768 21.632 43.3408 21.732 43.5248 21.804C43.7168 21.876 43.9048 21.912 44.0888 21.912C44.3528 21.912 44.5608 21.848 44.7128 21.72C44.8728 21.6 45.0168 21.396 45.1448 21.108L45.4808 20.316L45.6248 20.112L47.9408 14.544H49.7408L46.8248 21.396C46.6168 21.916 46.3768 22.324 46.1048 22.62C45.8408 22.916 45.5448 23.124 45.2168 23.244C44.8968 23.364 44.5408 23.424 44.1488 23.424ZM45.2528 21.252L42.3727 14.544H44.3048L46.5368 19.944L45.2528 21.252Z" fill="#2EB87A"/>
<path d="M59.676 21.348C59.444 21.348 59.164 21.336 58.836 21.312C58.508 21.296 58.164 21.272 57.804 21.24C57.444 21.208 57.088 21.176 56.736 21.144L56.868 19.656C57.092 19.68 57.352 19.708 57.648 19.74C57.952 19.764 58.248 19.784 58.536 19.8C58.824 19.808 59.044 19.812 59.196 19.812C59.38 19.812 59.528 19.784 59.64 19.728C59.76 19.672 59.856 19.54 59.928 19.332C60 19.116 60.056 18.792 60.096 18.36C60.136 17.92 60.168 17.324 60.192 16.572C60.216 15.812 60.232 14.852 60.24 13.692L61.068 14.532H51.864V13.092H61.848V13.86C61.848 15.156 61.832 16.248 61.8 17.136C61.768 18.016 61.708 18.736 61.62 19.296C61.54 19.848 61.416 20.276 61.248 20.58C61.088 20.876 60.88 21.076 60.624 21.18C60.376 21.292 60.06 21.348 59.676 21.348ZM51.792 20.448C52.304 20.064 52.74 19.68 53.1 19.296C53.46 18.912 53.756 18.488 53.988 18.024C54.228 17.552 54.412 17.004 54.54 16.38C54.676 15.748 54.768 15.012 54.816 14.172C54.872 13.324 54.9 12.324 54.9 11.172H56.46C56.46 12.396 56.424 13.476 56.352 14.412C56.28 15.348 56.16 16.176 55.992 16.896C55.832 17.616 55.612 18.252 55.332 18.804C55.06 19.356 54.72 19.856 54.312 20.304C53.904 20.752 53.416 21.176 52.848 21.576L51.792 20.448ZM68.928 21.456V11.724H70.56V20.724L69.6 19.884C70.312 19.884 70.924 19.736 71.436 19.44C71.948 19.136 72.356 18.684 72.66 18.084C72.972 17.476 73.18 16.716 73.284 15.804L74.808 16.02C74.68 17.172 74.392 18.156 73.944 18.972C73.496 19.78 72.904 20.396 72.168 20.82C71.44 21.244 70.584 21.456 69.6 21.456H68.928ZM63.204 20.244C63.66 20.036 64.032 19.808 64.32 19.56C64.616 19.312 64.844 19.012 65.004 18.66C65.172 18.3 65.288 17.852 65.352 17.316C65.416 16.78 65.448 16.116 65.448 15.324V11.724H67.044V15.444C67.044 16.356 66.992 17.148 66.888 17.82C66.784 18.484 66.616 19.056 66.384 19.536C66.16 20.008 65.852 20.408 65.46 20.736C65.076 21.064 64.6 21.352 64.032 21.6L63.204 20.244ZM76.992 20.28C78.184 20.144 79.076 19.8 79.668 19.248C80.26 18.688 80.556 17.924 80.556 16.956V16.716H75.684V15.276H86.316V16.716H82.236V16.956C82.236 17.876 82.044 18.68 81.66 19.368C81.276 20.048 80.72 20.588 79.992 20.988C79.272 21.388 78.396 21.632 77.364 21.72L76.992 20.28ZM76.836 13.32V11.88H85.164V13.32H76.836Z" fill="#2EB87A"/>
</svg>
