<svg width="30" height="31" viewBox="0 0 30 31" fill="none" xmlns="http://www.w3.org/2000/svg">
<rect y="2" width="26" height="29" rx="5" fill="#2EB87A"/>
<path d="M2 9H24V25C24 27.2091 22.2091 29 20 29H6C3.79086 29 2 27.2091 2 25V9Z" fill="white"/>
<rect x="4" y="14" width="18" height="2" rx="1" fill="#2EB87A"/>
<rect x="4" y="18" width="18" height="2" rx="1" fill="#2EB87A"/>
<rect x="4" y="22" width="18" height="2" rx="1" fill="#2EB87A"/>
<path d="M19.647 4.2094C19.647 3.70161 19.8108 3.20576 20.1168 2.78735C20.4228 2.36894 20.8566 2.04765 21.3608 1.86592C21.8651 1.68418 22.4161 1.65055 22.9411 1.76947C23.4662 1.88839 23.9405 2.15426 24.3014 2.53196C24.3268 2.55752 24.3576 2.5779 24.3917 2.59183C24.4259 2.60576 24.4627 2.61295 24.4999 2.61295C24.5371 2.61295 24.5739 2.60576 24.6081 2.59183C24.6422 2.5779 24.673 2.55752 24.6984 2.53196C25.0582 2.1518 25.5326 1.8837 26.0585 1.76334C26.5843 1.64297 27.1367 1.67606 27.6421 1.8582C28.1475 2.04033 28.5819 2.36287 28.8875 2.7829C29.1931 3.20292 29.3554 3.7005 29.3528 4.2094C29.3528 5.25438 28.6249 6.03469 27.8969 6.71918L25.2317 9.14362C25.1413 9.24127 25.0298 9.31972 24.9047 9.37374C24.7795 9.42776 24.6436 9.45613 24.5059 9.45695C24.3682 9.45777 24.2318 9.43103 24.106 9.3785C23.9801 9.32597 23.8676 9.24886 23.7758 9.15229L21.1029 6.71918C20.3749 6.03469 19.647 5.25895 19.647 4.2094Z" fill="#2EB87A" stroke="white" stroke-linecap="round" stroke-linejoin="round"/>
</svg>
